# Blender v2.79 (sub 0) OBJ File: 'bottle.blend'
# www.blender.org
mtllib bottle.mtl
o Botella_Circle.007
v -0.000000 0.284248 0.023183
v 0.020077 0.284248 0.011591
v 0.020077 0.284248 -0.011591
v -0.000000 0.284248 -0.023183
v -0.020077 0.284248 -0.011591
v -0.020077 0.284248 0.011591
v -0.000000 0.249590 0.023183
v 0.020077 0.249590 0.011591
v 0.020077 0.249590 -0.011591
v -0.000000 0.249590 -0.023183
v -0.020077 0.249590 -0.011591
v -0.020077 0.249590 0.011591
v -0.000000 0.191455 0.023183
v 0.020077 0.191455 0.011591
v 0.020077 0.191455 -0.011591
v -0.000000 0.191455 -0.023183
v -0.020077 0.191455 -0.011591
v -0.020077 0.191455 0.011591
v 0.000000 0.075184 0.068526
v 0.059345 0.075184 0.034263
v 0.059345 0.075184 -0.034263
v -0.000000 0.075184 -0.068526
v -0.059345 0.075184 -0.034263
v -0.059345 0.075184 0.034263
v 0.000000 -0.213257 0.068526
v 0.059345 -0.213257 0.034263
v 0.059345 -0.213257 -0.034263
v -0.000000 -0.213257 -0.068526
v -0.059345 -0.213257 -0.034263
v -0.059345 -0.213257 0.034263
v -0.000000 0.284248 0.014033
v 0.012153 0.284248 0.007016
v 0.012153 0.284248 -0.007016
v -0.000000 0.284248 -0.014033
v -0.012153 0.284248 -0.007016
v -0.012153 0.284248 0.007016
v -0.000000 0.284248 0.031159
v 0.026985 0.284248 0.015580
v 0.026985 0.284248 -0.015580
v -0.000000 0.284248 -0.031159
v -0.026985 0.284248 -0.015580
v -0.026985 0.284248 0.015580
v -0.000000 0.249590 0.031159
v 0.026985 0.249590 0.015580
v 0.026985 0.249590 -0.015580
v -0.000000 0.249590 -0.031159
v -0.026985 0.249590 -0.015580
v -0.026985 0.249590 0.015580
v -0.000000 0.278444 0.014033
v 0.012153 0.278444 0.007016
v 0.012153 0.278444 -0.007016
v -0.000000 0.278444 -0.014033
v -0.012153 0.278444 -0.007016
v -0.012153 0.278444 0.007016
v -0.000000 0.325448 0.025100
v 0.021738 0.325448 0.012550
v 0.021738 0.325448 -0.012550
v -0.000000 0.325448 -0.025100
v -0.021738 0.325448 -0.012550
v -0.021738 0.325448 0.012550
v -0.000000 0.284248 0.014033
v 0.012153 0.284248 0.007016
v 0.012153 0.284248 -0.007016
v -0.000000 0.284248 -0.014033
v -0.012153 0.284248 -0.007016
v -0.012153 0.284248 0.007016
vt 0.566959 0.419909
vt 0.600289 0.364533
vt 0.635968 0.365282
vt 0.584142 0.451183
vt 0.435353 0.197206
vt 0.629394 0.193409
vt 0.604915 0.237069
vt 0.460922 0.240234
vt 0.504366 0.306795
vt 0.471035 0.362181
vt 0.435355 0.361427
vt 0.487182 0.275521
vt 0.729703 0.359556
vt 0.635972 0.529499
vt 0.610400 0.486470
vt 0.679654 0.360187
vt 0.341620 0.367146
vt 0.391669 0.366520
vt 0.502333 0.418737
vt 0.483833 0.449259
vt 0.649294 0.142237
vt 0.783970 0.351203
vt 0.287353 0.375501
vt 0.400986 0.154385
vt 0.441927 0.533295
vt 0.670337 0.572320
vt 0.422028 0.584468
vt 0.373687 0.089318
vt 0.691994 0.086061
vt 0.379328 0.640643
vt 0.217354 0.366609
vt 0.853969 0.360095
vt 0.697636 0.637386
vt 0.138806 0.363352
vt 0.337234 0.019665
vt 0.734089 0.707039
vt 0.337234 0.707039
vt 0.734089 0.019665
vt 0.932517 0.363352
vt 0.298315 0.758048
vt 0.298315 0.914092
vt 0.163177 0.992115
vt 0.028038 0.914092
vt 0.028038 0.758048
vt 0.163177 0.680025
vt 0.553935 0.392632
vt 0.570156 0.362164
vt 0.568988 0.307974
vt 0.551879 0.332880
vt 0.517380 0.334072
vt 0.501165 0.364539
vt 0.519441 0.393822
vt 0.587479 0.277449
vt 0.466408 0.489636
vt 0.496439 0.844846
vt 0.493540 0.743583
vt 0.397796 0.799209
vt 0.487293 0.847294
vt 0.484719 0.856836
vt 0.397796 0.909684
vt 0.493787 0.965413
vt 0.490888 0.864151
vt 0.502608 0.852160
vt 0.589531 0.799312
vt 0.589531 0.909787
vt 0.500034 0.861702
vt 0.901881 0.697097
vt 0.844724 0.697077
vt 0.816128 0.746568
vt 0.844689 0.796078
vt 0.901847 0.796097
vt 0.930443 0.746607
vt 0.887069 0.935906
vt 0.887090 0.876052
vt 0.835265 0.846107
vt 0.783419 0.876016
vt 0.783399 0.935870
vt 0.835224 0.965815
vn 0.0000 1.0000 0.0000
vn 0.0000 -1.0000 0.0000
vn -0.5000 0.0000 0.8660
vn -0.5000 0.0000 -0.8660
vn 1.0000 0.0000 -0.0000
vn -1.0000 0.0000 0.0000
vn 0.5000 0.0000 -0.8660
vn 0.5000 0.0000 0.8660
vn -0.9474 0.3200 0.0000
vn 0.4737 0.3200 -0.8205
vn 0.4737 0.3200 0.8205
vn -0.4737 0.3200 0.8205
vn -0.4737 0.3200 -0.8205
vn 0.9474 0.3200 -0.0000
vn -0.4899 -0.1998 -0.8486
vn 0.9798 -0.1998 -0.0000
vn -0.9798 -0.1998 0.0000
vn 0.4899 -0.1998 -0.8486
vn 0.4899 -0.1998 0.8486
vn -0.4899 -0.1998 0.8486
usemtl Material.001
s off
f 2/1/1 1/2/1 37/3/1 38/4/1
f 11/5/2 12/6/2 48/7/2 47/8/2
f 5/9/1 4/10/1 40/11/1 41/12/1
f 7/13/2 8/14/2 44/15/2 43/16/2
f 10/17/2 11/5/2 47/8/2 46/18/2
f 4/10/1 3/19/1 39/20/1 40/11/1
f 7/13/3 12/6/3 18/21/3 13/22/3
f 11/5/4 10/17/4 16/23/4 17/24/4
f 9/25/5 8/14/5 14/26/5 15/27/5
f 12/6/6 11/5/6 17/24/6 18/21/6
f 10/17/7 9/25/7 15/27/7 16/23/7
f 8/14/8 7/13/8 13/22/8 14/26/8
f 18/21/9 17/24/9 23/28/9 24/29/9
f 16/23/10 15/27/10 21/30/10 22/31/10
f 14/26/11 13/22/11 19/32/11 20/33/11
f 13/22/12 18/21/12 24/29/12 19/32/12
f 17/24/13 16/23/13 22/31/13 23/28/13
f 15/27/14 14/26/14 20/33/14 21/30/14
f 23/28/4 22/31/4 28/34/4 29/35/4
f 21/30/5 20/33/5 26/36/5 27/37/5
f 24/29/6 23/28/6 29/35/6 30/38/6
f 22/31/7 21/30/7 27/37/7 28/34/7
f 20/33/8 19/32/8 25/39/8 26/36/8
f 19/32/3 24/29/3 30/38/3 25/39/3
f 26/40/2 25/41/2 30/42/2 29/43/2 28/44/2 27/45/2
f 1/2/1 2/1/1 32/46/1 31/47/1
f 6/48/1 1/2/1 31/47/1 36/49/1
f 4/10/1 5/9/1 35/50/1 34/51/1
f 2/1/1 3/19/1 33/52/1 32/46/1
f 5/9/1 6/48/1 36/49/1 35/50/1
f 3/19/1 4/10/1 34/51/1 33/52/1
f 38/4/8 37/3/8 43/16/8 44/15/8
f 37/3/3 42/53/3 48/7/3 43/16/3
f 41/12/4 40/11/4 46/18/4 47/8/4
f 39/20/5 38/4/5 44/15/5 45/54/5
f 42/53/6 41/12/6 47/8/6 48/7/6
f 40/11/7 39/20/7 45/54/7 46/18/7
f 8/14/2 9/25/2 45/54/2 44/15/2
f 6/48/1 5/9/1 41/12/1 42/53/1
f 12/6/2 7/13/2 43/16/2 48/7/2
f 3/19/1 2/1/1 38/4/1 39/20/1
f 9/25/2 10/17/2 46/18/2 45/54/2
f 1/2/1 6/48/1 42/53/1 37/3/1
f 53/55/15 59/56/15 58/57/15 52/58/15
f 51/59/16 57/60/16 56/61/16 50/62/16
f 54/63/17 60/64/17 59/56/17 53/55/17
f 52/58/18 58/57/18 57/60/18 51/59/18
f 50/62/19 56/61/19 55/65/19 49/66/19
f 49/66/20 55/65/20 60/64/20 54/63/20
f 56/67/1 57/68/1 58/69/1 59/70/1 60/71/1 55/72/1
f 50/73/2 49/74/2 54/75/2 53/76/2 52/77/2 51/78/2
l 62 61
l 63 62
l 64 63
l 65 64
l 66 65
l 61 66
