# Blender v2.79 (sub 0) OBJ File: 'dish.blend'
# www.blender.org
mtllib dish.mtl
o Plato_Circle.009
v 0.000000 0.007011 0.166635
v 0.144310 0.007011 0.083318
v 0.144310 0.007011 -0.083318
v -0.000000 0.007011 -0.166635
v -0.144310 0.007011 -0.083318
v -0.144310 0.007011 0.083318
v -0.000000 -0.021241 0.170437
v 0.147602 -0.021241 0.085218
v 0.147602 -0.021241 -0.085218
v -0.000000 -0.021241 -0.170437
v -0.147602 -0.021241 -0.085218
v -0.147602 -0.021241 0.085218
v 0.191936 0.023344 0.110814
v 0.000000 0.023344 0.221629
v 0.191936 0.023344 -0.110814
v -0.000000 0.023344 -0.221629
v -0.191936 0.023344 -0.110814
v -0.191936 0.023344 0.110814
v -0.167855 0.001051 -0.096911
v -0.167855 0.001051 0.096911
v 0.167855 0.001051 -0.096911
v -0.000000 0.001051 -0.193822
v -0.000000 0.001051 0.193822
v 0.167855 0.001051 0.096911
vt 0.533877 0.199140
vt 0.292680 0.061530
vt 0.294136 0.000101
vt 0.587796 0.169661
vt 0.052795 0.201436
vt 0.054036 0.479056
vt 0.000101 0.508546
vt 0.000324 0.169439
vt 0.295298 0.616470
vt 0.535309 0.476724
vt 0.587796 0.508731
vt 0.293842 0.677877
vt 0.896924 0.000101
vt 0.999899 0.178459
vt 0.896924 0.356817
vt 0.690974 0.356817
vt 0.587999 0.178459
vt 0.690974 0.000101
vt 0.292135 0.496507
vt 0.156239 0.416274
vt 0.158208 0.258693
vt 0.295860 0.181477
vt 0.431649 0.261917
vt 0.429906 0.419490
vt 0.485532 0.452695
vt 0.291203 0.561370
vt 0.099703 0.447919
vt 0.102562 0.225462
vt 0.296779 0.116643
vt 0.488217 0.230269
vn -0.7402 -0.6724 0.0000
vn 0.3701 -0.6724 -0.6410
vn 0.3701 -0.6724 0.6410
vn -0.3701 -0.6724 0.6410
vn -0.3701 -0.6724 -0.6410
vn 0.7402 -0.6724 -0.0000
vn 0.0000 -1.0000 -0.0000
vn 0.0000 1.0000 0.0000
vn -0.1622 0.9459 -0.2809
vn -0.3244 0.9459 0.0000
vn -0.1622 0.9459 0.2809
vn 0.1622 0.9459 0.2809
vn 0.3244 0.9459 0.0000
vn 0.1622 0.9459 -0.2809
vn 0.6793 -0.7338 -0.0000
vn -0.3397 -0.7338 -0.5883
vn -0.3397 -0.7338 0.5883
vn 0.3397 -0.7338 0.5883
vn 0.3397 -0.7338 -0.5883
vn -0.6793 -0.7338 0.0000
usemtl Material.001
s off
f 20/1/1 19/2/1 11/3/1 12/4/1
f 22/5/2 21/6/2 9/7/2 10/8/2
f 24/9/3 23/10/3 7/11/3 8/12/3
f 23/10/4 20/1/4 12/4/4 7/11/4
f 19/2/5 22/5/5 10/8/5 11/3/5
f 21/6/6 24/9/6 8/12/6 9/7/6
f 8/13/7 7/14/7 12/15/7 11/16/7 10/17/7 9/18/7
f 2/19/8 3/20/8 4/21/8 5/22/8 6/23/8 1/24/8
f 2/19/9 1/24/9 14/25/9 13/26/9
f 3/20/10 2/19/10 13/26/10 15/27/10
f 4/21/11 3/20/11 15/27/11 16/28/11
f 5/22/12 4/21/12 16/28/12 17/29/12
f 6/23/13 5/22/13 17/29/13 18/30/13
f 1/24/14 6/23/14 18/30/14 14/25/14
f 15/27/15 13/26/15 24/9/15 21/6/15
f 17/29/16 16/28/16 22/5/16 19/2/16
f 14/25/17 18/30/17 20/1/17 23/10/17
f 13/26/18 14/25/18 23/10/18 24/9/18
f 16/28/19 15/27/19 21/6/19 22/5/19
f 18/30/20 17/29/20 19/2/20 20/1/20
