# Blender v2.79 (sub 0) OBJ File: ''
# www.blender.org
mtllib sphere.mtl
o Sphere
v 0.000000 0.482963 -0.129410
v 0.000000 0.353553 -0.353553
v 0.000000 0.129410 -0.482963
v 0.000000 0.000000 -0.500000
v 0.000000 -0.129409 -0.482963
v 0.000000 -0.353553 -0.353553
v 0.000000 -0.433013 -0.250000
v 0.000000 -0.500000 -0.000000
v -0.000000 0.500000 -0.000000
v 0.064705 0.482963 -0.112072
v 0.125000 0.433013 -0.216506
v 0.176777 0.353553 -0.306186
v 0.216506 0.250000 -0.375000
v 0.241481 0.129410 -0.418258
v 0.250000 0.000000 -0.433013
v 0.241481 -0.129409 -0.418258
v 0.216506 -0.250000 -0.375000
v 0.176777 -0.353553 -0.306186
v 0.125000 -0.433013 -0.216506
v 0.064705 -0.482963 -0.112072
v 0.112072 0.482963 -0.064705
v 0.216506 0.433013 -0.125000
v 0.306186 0.353553 -0.176777
v 0.375000 0.250000 -0.216506
v 0.418258 0.129410 -0.241482
v 0.433013 0.000000 -0.250000
v 0.418258 -0.129409 -0.241482
v 0.375000 -0.250000 -0.216506
v 0.306186 -0.353553 -0.176777
v 0.216506 -0.433013 -0.125000
v 0.112072 -0.482963 -0.064705
v 0.129409 0.482963 -0.000000
v 0.250000 0.433013 -0.000000
v 0.353553 0.353553 -0.000000
v 0.433013 0.250000 -0.000000
v 0.482963 0.129410 -0.000000
v 0.500000 0.000000 -0.000000
v 0.482963 -0.129409 -0.000000
v 0.433013 -0.250000 -0.000000
v 0.353553 -0.353553 -0.000000
v 0.250000 -0.433013 -0.000000
v 0.129409 -0.482963 -0.000000
v 0.112072 0.482963 0.064704
v 0.216506 0.433013 0.125000
v 0.306186 0.353553 0.176776
v 0.375000 0.250000 0.216506
v 0.418258 0.129410 0.241481
v 0.433013 0.000000 0.250000
v 0.418258 -0.129409 0.241481
v 0.375000 -0.250000 0.216506
v 0.306186 -0.353553 0.176776
v 0.216506 -0.433013 0.125000
v 0.112072 -0.482963 0.064705
v 0.064705 0.482963 0.112072
v 0.125000 0.433013 0.216506
v 0.176777 0.353553 0.306186
v 0.216506 0.250000 0.375000
v 0.241481 0.129410 0.418258
v 0.250000 0.000000 0.433012
v 0.241481 -0.129409 0.418258
v 0.216506 -0.250000 0.375000
v 0.176777 -0.353553 0.306186
v 0.125000 -0.433013 0.216506
v 0.064705 -0.482963 0.112072
v 0.000000 0.482963 0.129409
v -0.000000 0.433013 0.250000
v -0.000000 0.353553 0.353553
v -0.000000 0.250000 0.433012
v -0.000000 0.129410 0.482963
v -0.000000 0.000000 0.500000
v -0.000000 -0.129409 0.482963
v -0.000000 -0.250000 0.433012
v -0.000000 -0.353553 0.353553
v -0.000000 -0.433013 0.250000
v 0.000000 -0.482963 0.129409
v -0.064705 0.482963 0.112072
v -0.125000 0.433013 0.216506
v -0.176777 0.353553 0.306186
v -0.216506 0.250000 0.375000
v -0.241481 0.129410 0.418258
v -0.250000 0.000000 0.433012
v -0.241481 -0.129409 0.418258
v -0.216506 -0.250000 0.375000
v -0.176777 -0.353553 0.306186
v -0.125000 -0.433013 0.216506
v -0.064705 -0.482963 0.112072
v -0.112072 0.482963 0.064704
v -0.216506 0.433013 0.125000
v -0.306186 0.353553 0.176776
v -0.375000 0.250000 0.216506
v -0.418258 0.129410 0.241481
v -0.433013 0.000000 0.250000
v -0.418258 -0.129409 0.241481
v -0.375000 -0.250000 0.216506
v -0.306186 -0.353553 0.176776
v -0.216506 -0.433013 0.125000
v -0.112072 -0.482963 0.064705
v -0.129409 0.482963 -0.000000
v -0.250000 0.433013 -0.000000
v -0.353553 0.353553 -0.000000
v -0.433012 0.250000 -0.000000
v -0.482963 0.129410 -0.000000
v -0.500000 0.000000 -0.000000
v -0.482963 -0.129409 -0.000000
v -0.433013 -0.250000 -0.000000
v -0.353553 -0.353553 -0.000000
v -0.250000 -0.433013 -0.000000
v -0.129409 -0.482963 -0.000000
v -0.112072 0.482963 -0.064705
v -0.216506 0.433013 -0.125000
v -0.306186 0.353553 -0.176777
v -0.375000 0.250000 -0.216506
v -0.418258 0.129410 -0.241482
v -0.433012 0.000000 -0.250000
v -0.418258 -0.129409 -0.241482
v -0.375000 -0.250000 -0.216506
v -0.306186 -0.353553 -0.176777
v -0.216506 -0.433013 -0.125000
v -0.112072 -0.482963 -0.064705
v -0.064705 0.482963 -0.112072
v -0.125000 0.433013 -0.216506
v -0.176777 0.353553 -0.306186
v -0.216506 0.250000 -0.375000
v -0.241481 0.129410 -0.418258
v -0.250000 0.000000 -0.433013
v -0.241481 -0.129409 -0.418258
v -0.216506 -0.250000 -0.375000
v -0.176777 -0.353553 -0.306186
v -0.125000 -0.433013 -0.216506
v -0.064705 -0.482963 -0.112072
v 0.000000 0.433013 -0.250000
v 0.000000 0.250000 -0.433013
v 0.000000 -0.250000 -0.433013
v 0.000000 -0.482963 -0.129410
vt 0.750000 0.500000
vt 0.750000 0.583333
vt 0.666667 0.583333
vt 0.666667 0.500000
vt 0.750000 0.750000
vt 0.750000 0.833333
vt 0.666667 0.833333
vt 0.666667 0.750000
vt 0.750000 0.166667
vt 0.750000 0.250000
vt 0.666667 0.250000
vt 0.666667 0.166667
vt 0.750000 0.416667
vt 0.666667 0.416667
vt 0.750000 0.666667
vt 0.666667 0.666667
vt 0.750000 0.083333
vt 0.666667 0.083333
vt 0.750000 0.916667
vt 0.708333 1.000000
vt 0.666667 0.916667
vt 0.750000 0.333333
vt 0.666667 0.333333
vt 0.708333 0.000000
vt 0.583333 0.750000
vt 0.583333 0.666667
vt 0.583333 0.166667
vt 0.583334 0.083333
vt 0.625000 1.000000
vt 0.583334 0.916667
vt 0.583333 0.416667
vt 0.583333 0.333333
vt 0.583333 0.583333
vt 0.625000 0.000000
vt 0.583333 0.833333
vt 0.583333 0.250000
vt 0.583333 0.500000
vt 0.500000 0.833333
vt 0.500000 0.750000
vt 0.500000 0.250000
vt 0.500000 0.166667
vt 0.500000 0.500000
vt 0.500000 0.416667
vt 0.500000 0.666667
vt 0.500000 0.083333
vt 0.541667 1.000000
vt 0.500000 0.916667
vt 0.500000 0.333333
vt 0.500000 0.583333
vt 0.541667 0.000000
vt 0.416667 0.666667
vt 0.416667 0.583333
vt 0.458334 0.000000
vt 0.416667 0.083333
vt 0.416667 0.916667
vt 0.416667 0.833333
vt 0.416667 0.333333
vt 0.416667 0.250000
vt 0.416667 0.500000
vt 0.416667 0.750000
vt 0.416667 0.166667
vt 0.416667 0.416667
vt 0.458334 1.000000
vt 0.333333 0.750000
vt 0.333333 0.666667
vt 0.333333 0.166667
vt 0.333333 0.083333
vt 0.375000 1.000000
vt 0.333333 0.916667
vt 0.333333 0.416667
vt 0.333333 0.333333
vt 0.333333 0.583333
vt 0.375000 0.000000
vt 0.333333 0.833334
vt 0.333333 0.250000
vt 0.333333 0.500000
vt 0.250000 0.583333
vt 0.250000 0.500000
vt 0.250000 0.833334
vt 0.250000 0.750000
vt 0.250000 0.250000
vt 0.250000 0.166667
vt 0.250000 0.416667
vt 0.250000 0.666667
vt 0.250000 0.083333
vt 0.291667 1.000000
vt 0.250000 0.916667
vt 0.250000 0.333333
vt 0.291667 0.000000
vt 0.166667 0.666667
vt 0.166667 0.583333
vt 0.208333 0.000000
vt 0.166667 0.083333
vt 0.166667 0.916667
vt 0.166667 0.833334
vt 0.166667 0.333333
vt 0.166667 0.250000
vt 0.166667 0.500000
vt 0.166667 0.750000
vt 0.166667 0.166667
vt 0.166667 0.416667
vt 0.208333 1.000000
vt 0.083333 0.500000
vt 0.083333 0.416667
vt 0.083333 0.750000
vt 0.083333 0.666667
vt 0.083333 0.166667
vt 0.083333 0.083333
vt 0.125000 1.000000
vt 0.083333 0.916667
vt 0.083333 0.333333
vt 0.083333 0.583333
vt 0.125000 0.000000
vt 0.083333 0.833333
vt 0.083333 0.250000
vt 0.000000 0.583333
vt 0.000000 0.500000
vt 0.000000 0.833333
vt 0.000000 0.750000
vt 0.000000 0.250000
vt 0.000000 0.166667
vt 0.000000 0.416667
vt 0.000000 0.666667
vt 0.000000 0.083333
vt 0.041666 1.000000
vt 0.000000 0.916667
vt 0.000000 0.333333
vt 0.041666 0.000000
vt 1.000000 0.333333
vt 1.000000 0.416667
vt 0.916667 0.416667
vt 0.916667 0.333333
vt 1.000000 0.583333
vt 1.000000 0.666667
vt 0.916667 0.666667
vt 0.916667 0.583333
vt 0.958333 0.000000
vt 1.000000 0.083333
vt 0.916666 0.083333
vt 1.000000 0.833333
vt 1.000000 0.916667
vt 0.916666 0.916667
vt 0.916667 0.833333
vt 1.000000 0.250000
vt 0.916667 0.250000
vt 1.000000 0.500000
vt 0.916667 0.500000
vt 1.000000 0.750000
vt 0.916667 0.750000
vt 1.000000 0.166667
vt 0.916667 0.166667
vt 0.958333 1.000000
vt 0.833333 0.500000
vt 0.833333 0.416667
vt 0.833333 0.750000
vt 0.833333 0.666667
vt 0.833333 0.166667
vt 0.833333 0.083333
vt 0.875000 1.000000
vt 0.833333 0.916667
vt 0.833333 0.333333
vt 0.833333 0.583333
vt 0.875000 0.000000
vt 0.833333 0.833333
vt 0.833333 0.250000
vt 0.791667 1.000000
vt 0.791667 0.000000
vn 0.2568 0.1262 -0.9582
vn 0.1610 0.7830 -0.6008
vn 0.1610 -0.7830 -0.6008
vn 0.2568 -0.1262 -0.9582
vn 0.2079 0.5955 -0.7760
vn 0.1020 -0.9191 -0.3807
vn 0.0350 0.9908 -0.1304
vn 0.2403 -0.3715 -0.8968
vn 0.2403 0.3715 -0.8968
vn 0.0350 -0.9908 -0.1304
vn 0.1020 0.9191 -0.3807
vn 0.2079 -0.5955 -0.7760
vn 0.5681 0.5955 -0.5681
vn 0.2787 -0.9191 -0.2787
vn 0.0955 0.9908 -0.0955
vn 0.6565 -0.3715 -0.6565
vn 0.6565 0.3715 -0.6565
vn 0.0955 -0.9908 -0.0955
vn 0.2787 0.9191 -0.2787
vn 0.5681 -0.5955 -0.5681
vn 0.7015 0.1262 -0.7015
vn 0.4398 0.7830 -0.4398
vn 0.4398 -0.7830 -0.4398
vn 0.7015 -0.1262 -0.7015
vn 0.6008 0.7830 -0.1610
vn 0.6008 -0.7830 -0.1610
vn 0.9582 -0.1262 -0.2568
vn 0.7760 0.5955 -0.2079
vn 0.3807 -0.9191 -0.1020
vn 0.1304 0.9908 -0.0350
vn 0.8968 -0.3715 -0.2403
vn 0.8968 0.3715 -0.2403
vn 0.1304 -0.9908 -0.0350
vn 0.3807 0.9191 -0.1020
vn 0.7760 -0.5955 -0.2079
vn 0.9582 0.1262 -0.2568
vn 0.8968 0.3715 0.2403
vn 0.1304 -0.9908 0.0350
vn 0.3807 0.9191 0.1020
vn 0.7760 -0.5955 0.2079
vn 0.9582 0.1262 0.2568
vn 0.6008 0.7830 0.1610
vn 0.6008 -0.7830 0.1610
vn 0.9582 -0.1261 0.2568
vn 0.7760 0.5955 0.2079
vn 0.3807 -0.9191 0.1020
vn 0.1304 0.9908 0.0350
vn 0.8968 -0.3715 0.2403
vn 0.5681 0.5955 0.5681
vn 0.2787 -0.9191 0.2787
vn 0.0955 0.9908 0.0955
vn 0.6565 -0.3715 0.6565
vn 0.6565 0.3715 0.6565
vn 0.0955 -0.9908 0.0955
vn 0.2787 0.9191 0.2787
vn 0.5681 -0.5955 0.5681
vn 0.7015 0.1262 0.7015
vn 0.4398 0.7830 0.4398
vn 0.4398 -0.7830 0.4398
vn 0.7015 -0.1262 0.7015
vn 0.2568 0.1262 0.9582
vn 0.1610 0.7830 0.6008
vn 0.1610 -0.7830 0.6008
vn 0.2568 -0.1262 0.9582
vn 0.2079 0.5955 0.7760
vn 0.1020 -0.9191 0.3807
vn 0.0350 0.9908 0.1304
vn 0.2403 -0.3715 0.8968
vn 0.2403 0.3715 0.8968
vn 0.0350 -0.9908 0.1304
vn 0.1020 0.9191 0.3807
vn 0.2079 -0.5955 0.7760
vn -0.2403 0.3715 0.8968
vn -0.0350 -0.9908 0.1304
vn -0.1020 0.9191 0.3807
vn -0.2079 -0.5955 0.7760
vn -0.2568 0.1262 0.9582
vn -0.1610 0.7830 0.6008
vn -0.1610 -0.7830 0.6008
vn -0.2568 -0.1262 0.9582
vn -0.2079 0.5955 0.7760
vn -0.1020 -0.9191 0.3807
vn -0.0350 0.9908 0.1304
vn -0.2403 -0.3715 0.8968
vn -0.7015 -0.1262 0.7015
vn -0.5681 0.5955 0.5681
vn -0.2787 -0.9191 0.2787
vn -0.0955 0.9908 0.0955
vn -0.6565 -0.3715 0.6565
vn -0.6565 0.3715 0.6565
vn -0.0955 -0.9908 0.0955
vn -0.2787 0.9191 0.2787
vn -0.5681 -0.5955 0.5681
vn -0.7015 0.1262 0.7015
vn -0.4398 0.7830 0.4398
vn -0.4398 -0.7830 0.4398
vn -0.9582 0.1262 0.2568
vn -0.6008 0.7830 0.1610
vn -0.6008 -0.7830 0.1610
vn -0.9582 -0.1262 0.2568
vn -0.7760 0.5955 0.2079
vn -0.3807 -0.9191 0.1020
vn -0.1304 0.9908 0.0350
vn -0.8968 -0.3715 0.2403
vn -0.8968 0.3715 0.2403
vn -0.1304 -0.9908 0.0350
vn -0.3807 0.9191 0.1020
vn -0.7760 -0.5955 0.2079
vn -0.8968 -0.3715 -0.2403
vn -0.8968 0.3715 -0.2403
vn -0.1304 -0.9908 -0.0350
vn -0.3807 0.9191 -0.1020
vn -0.7760 -0.5955 -0.2079
vn -0.9582 0.1262 -0.2568
vn -0.6008 0.7830 -0.1610
vn -0.6008 -0.7830 -0.1610
vn -0.9582 -0.1262 -0.2568
vn -0.7760 0.5955 -0.2079
vn -0.3807 -0.9191 -0.1020
vn -0.1304 0.9908 -0.0350
vn -0.7015 -0.1262 -0.7015
vn -0.5681 0.5955 -0.5681
vn -0.2787 -0.9191 -0.2787
vn -0.0955 0.9908 -0.0955
vn -0.6565 -0.3715 -0.6565
vn -0.6565 0.3715 -0.6565
vn -0.0955 -0.9908 -0.0955
vn -0.2787 0.9191 -0.2787
vn -0.5681 -0.5955 -0.5681
vn -0.7015 0.1262 -0.7015
vn -0.4398 0.7830 -0.4398
vn -0.4398 -0.7830 -0.4398
vn -0.2079 -0.5955 -0.7760
vn -0.2568 0.1262 -0.9582
vn -0.1610 0.7830 -0.6008
vn -0.1610 -0.7830 -0.6008
vn -0.2568 -0.1262 -0.9582
vn -0.2079 0.5955 -0.7760
vn -0.1020 -0.9191 -0.3807
vn -0.0350 0.9908 -0.1304
vn -0.2403 -0.3715 -0.8968
vn -0.2403 0.3715 -0.8968
vn -0.0350 -0.9908 -0.1304
vn -0.1020 0.9191 -0.3807
usemtl None
s off
f 4/1/1 3/2/1 14/3/1 15/4/1
f 2/5/2 131/6/2 11/7/2 12/8/2
f 7/9/3 6/10/3 18/11/3 19/12/3
f 5/13/4 4/1/4 15/4/4 16/14/4
f 132/15/5 2/5/5 12/8/5 13/16/5
f 134/17/6 7/9/6 19/12/6 20/18/6
f 1/19/7 9/20/7 10/21/7
f 133/22/8 5/13/8 16/14/8 17/23/8
f 3/2/9 132/15/9 13/16/9 14/3/9
f 8/24/10 134/17/10 20/18/10
f 131/6/11 1/19/11 10/21/11 11/7/11
f 6/10/12 133/22/12 17/23/12 18/11/12
f 13/16/13 12/8/13 23/25/13 24/26/13
f 20/18/14 19/12/14 30/27/14 31/28/14
f 10/21/15 9/29/15 21/30/15
f 17/23/16 16/14/16 27/31/16 28/32/16
f 14/3/17 13/16/17 24/26/17 25/33/17
f 8/34/18 20/18/18 31/28/18
f 11/7/19 10/21/19 21/30/19 22/35/19
f 18/11/20 17/23/20 28/32/20 29/36/20
f 15/4/21 14/3/21 25/33/21 26/37/21
f 12/8/22 11/7/22 22/35/22 23/25/22
f 19/12/23 18/11/23 29/36/23 30/27/23
f 16/14/24 15/4/24 26/37/24 27/31/24
f 23/25/25 22/35/25 33/38/25 34/39/25
f 30/27/26 29/36/26 40/40/26 41/41/26
f 27/31/27 26/37/27 37/42/27 38/43/27
f 24/26/28 23/25/28 34/39/28 35/44/28
f 31/28/29 30/27/29 41/41/29 42/45/29
f 21/30/30 9/46/30 32/47/30
f 28/32/31 27/31/31 38/43/31 39/48/31
f 25/33/32 24/26/32 35/44/32 36/49/32
f 8/50/33 31/28/33 42/45/33
f 22/35/34 21/30/34 32/47/34 33/38/34
f 29/36/35 28/32/35 39/48/35 40/40/35
f 26/37/36 25/33/36 36/49/36 37/42/36
f 36/49/37 35/44/37 46/51/37 47/52/37
f 8/53/38 42/45/38 53/54/38
f 33/38/39 32/47/39 43/55/39 44/56/39
f 40/40/40 39/48/40 50/57/40 51/58/40
f 37/42/41 36/49/41 47/52/41 48/59/41
f 34/39/42 33/38/42 44/56/42 45/60/42
f 41/41/43 40/40/43 51/58/43 52/61/43
f 38/43/44 37/42/44 48/59/44 49/62/44
f 35/44/45 34/39/45 45/60/45 46/51/45
f 42/45/46 41/41/46 52/61/46 53/54/46
f 32/47/47 9/63/47 43/55/47
f 39/48/48 38/43/48 49/62/48 50/57/48
f 46/51/49 45/60/49 56/64/49 57/65/49
f 53/54/50 52/61/50 63/66/50 64/67/50
f 43/55/51 9/68/51 54/69/51
f 50/57/52 49/62/52 60/70/52 61/71/52
f 47/52/53 46/51/53 57/65/53 58/72/53
f 8/73/54 53/54/54 64/67/54
f 44/56/55 43/55/55 54/69/55 55/74/55
f 51/58/56 50/57/56 61/71/56 62/75/56
f 48/59/57 47/52/57 58/72/57 59/76/57
f 45/60/58 44/56/58 55/74/58 56/64/58
f 52/61/59 51/58/59 62/75/59 63/66/59
f 49/62/60 48/59/60 59/76/60 60/70/60
f 59/76/61 58/72/61 69/77/61 70/78/61
f 56/64/62 55/74/62 66/79/62 67/80/62
f 63/66/63 62/75/63 73/81/63 74/82/63
f 60/70/64 59/76/64 70/78/64 71/83/64
f 57/65/65 56/64/65 67/80/65 68/84/65
f 64/67/66 63/66/66 74/82/66 75/85/66
f 54/69/67 9/86/67 65/87/67
f 61/71/68 60/70/68 71/83/68 72/88/68
f 58/72/69 57/65/69 68/84/69 69/77/69
f 8/89/70 64/67/70 75/85/70
f 55/74/71 54/69/71 65/87/71 66/79/71
f 62/75/72 61/71/72 72/88/72 73/81/72
f 69/77/73 68/84/73 79/90/73 80/91/73
f 8/92/74 75/85/74 86/93/74
f 66/79/75 65/87/75 76/94/75 77/95/75
f 73/81/76 72/88/76 83/96/76 84/97/76
f 70/78/77 69/77/77 80/91/77 81/98/77
f 67/80/78 66/79/78 77/95/78 78/99/78
f 74/82/79 73/81/79 84/97/79 85/100/79
f 71/83/80 70/78/80 81/98/80 82/101/80
f 68/84/81 67/80/81 78/99/81 79/90/81
f 75/85/82 74/82/82 85/100/82 86/93/82
f 65/87/83 9/102/83 76/94/83
f 72/88/84 71/83/84 82/101/84 83/96/84
f 82/101/85 81/98/85 92/103/85 93/104/85
f 79/90/86 78/99/86 89/105/86 90/106/86
f 86/93/87 85/100/87 96/107/87 97/108/87
f 76/94/88 9/109/88 87/110/88
f 83/96/89 82/101/89 93/104/89 94/111/89
f 80/91/90 79/90/90 90/106/90 91/112/90
f 8/113/91 86/93/91 97/108/91
f 77/95/92 76/94/92 87/110/92 88/114/92
f 84/97/93 83/96/93 94/111/93 95/115/93
f 81/98/94 80/91/94 91/112/94 92/103/94
f 78/99/95 77/95/95 88/114/95 89/105/95
f 85/100/96 84/97/96 95/115/96 96/107/96
f 92/103/97 91/112/97 102/116/97 103/117/97
f 89/105/98 88/114/98 99/118/98 100/119/98
f 96/107/99 95/115/99 106/120/99 107/121/99
f 93/104/100 92/103/100 103/117/100 104/122/100
f 90/106/101 89/105/101 100/119/101 101/123/101
f 97/108/102 96/107/102 107/121/102 108/124/102
f 87/110/103 9/125/103 98/126/103
f 94/111/104 93/104/104 104/122/104 105/127/104
f 91/112/105 90/106/105 101/123/105 102/116/105
f 8/128/106 97/108/106 108/124/106
f 88/114/107 87/110/107 98/126/107 99/118/107
f 95/115/108 94/111/108 105/127/108 106/120/108
f 105/129/109 104/130/109 115/131/109 116/132/109
f 102/133/110 101/134/110 112/135/110 113/136/110
f 8/137/111 108/138/111 119/139/111
f 99/140/112 98/141/112 109/142/112 110/143/112
f 106/144/113 105/129/113 116/132/113 117/145/113
f 103/146/114 102/133/114 113/136/114 114/147/114
f 100/148/115 99/140/115 110/143/115 111/149/115
f 107/150/116 106/144/116 117/145/116 118/151/116
f 104/130/117 103/146/117 114/147/117 115/131/117
f 101/134/118 100/148/118 111/149/118 112/135/118
f 108/138/119 107/150/119 118/151/119 119/139/119
f 98/141/120 9/152/120 109/142/120
f 115/131/121 114/147/121 125/153/121 126/154/121
f 112/135/122 111/149/122 122/155/122 123/156/122
f 119/139/123 118/151/123 129/157/123 130/158/123
f 109/142/124 9/159/124 120/160/124
f 116/132/125 115/131/125 126/154/125 127/161/125
f 113/136/126 112/135/126 123/156/126 124/162/126
f 8/163/127 119/139/127 130/158/127
f 110/143/128 109/142/128 120/160/128 121/164/128
f 117/145/129 116/132/129 127/161/129 128/165/129
f 114/147/130 113/136/130 124/162/130 125/153/130
f 111/149/131 110/143/131 121/164/131 122/155/131
f 118/151/132 117/145/132 128/165/132 129/157/132
f 128/165/133 127/161/133 133/22/133 6/10/133
f 125/153/134 124/162/134 3/2/134 4/1/134
f 122/155/135 121/164/135 131/6/135 2/5/135
f 129/157/136 128/165/136 6/10/136 7/9/136
f 126/154/137 125/153/137 4/1/137 5/13/137
f 123/156/138 122/155/138 2/5/138 132/15/138
f 130/158/139 129/157/139 7/9/139 134/17/139
f 120/160/140 9/166/140 1/19/140
f 127/161/141 126/154/141 5/13/141 133/22/141
f 124/162/142 123/156/142 132/15/142 3/2/142
f 8/167/143 130/158/143 134/17/143
f 121/164/144 120/160/144 1/19/144 131/6/144
