# Blender v2.79 (sub 0) OBJ File: 'table.blend'
# www.blender.org
mtllib table.mtl
o Mesa_Cube.006
v 2.501085 0.318129 0.610670
v 2.501085 -0.707743 0.610670
v 2.501085 0.318129 -0.608517
v 2.501085 -0.707743 -0.608517
v -2.500536 -0.707743 -0.608517
v -2.500536 0.318129 -0.608517
v -2.500536 -0.707743 0.610670
v -2.500536 0.318129 0.610670
v -2.097447 -0.707743 0.610670
v 2.097997 -0.707743 0.610670
v 2.097997 0.318129 0.610670
v -2.097447 0.318129 0.610670
v 2.097997 -0.707743 -0.608517
v -2.097447 -0.707743 -0.608517
v -2.097447 0.318129 -0.608517
v 2.097997 0.318129 -0.608517
v 2.501086 -0.707743 0.367752
v 2.501086 -0.707743 -0.365599
v 2.501086 0.318129 -0.365599
v 2.501086 0.318129 0.367752
v -2.500537 -0.707743 -0.365599
v -2.500537 -0.707743 0.367752
v -2.500537 0.318129 0.367752
v -2.500537 0.318129 -0.365599
v 2.097997 -0.707743 0.367752
v 2.097997 -0.707743 -0.365599
v -2.097448 -0.707743 0.367752
v -2.097448 -0.707743 -0.365599
v 2.501086 0.150441 -0.365599
v 2.501086 0.150441 0.367752
v -2.500537 0.150441 0.367752
v -2.500537 0.150441 -0.365599
v -2.097448 0.150441 0.367752
v -2.097448 0.150441 -0.365599
v 2.097997 0.150441 0.367752
v 2.097997 0.150441 -0.365599
v -2.500536 0.146126 -0.608517
v -2.097447 0.146126 -0.608517
v -2.500536 0.155341 0.610670
v -2.097447 0.155341 0.610670
v 2.501085 0.150203 0.610670
v 2.097997 0.150203 0.610670
v 2.501085 0.150203 -0.608517
v 2.097997 0.150203 -0.608517
vt 0.300317 0.673001
vt 0.300317 0.514482
vt 0.374774 0.514482
vt 0.374774 0.673001
vt 0.099975 0.000277
vt 0.103495 0.031530
vt 0.042846 0.040311
vt 0.024503 0.016244
vt 0.999723 0.070930
vt 0.965856 0.078881
vt 0.959564 0.044895
vt 0.978313 0.024801
vt 0.902791 0.288152
vt 0.898827 0.257191
vt 0.957401 0.246820
vt 0.981341 0.270355
vt 0.001165 0.220567
vt 0.036224 0.212405
vt 0.042504 0.247352
vt 0.023822 0.267322
vt 0.075287 0.673001
vt 0.075287 0.514482
vt 0.149744 0.514482
vt 0.149744 0.673001
vt 0.690653 0.673001
vt 0.645782 0.673906
vt 0.645782 0.514482
vt 0.690653 0.514482
vt 0.736631 0.673001
vt 0.736631 0.514482
vt 0.781501 0.514482
vt 0.781501 0.672204
vt 0.035757 0.075058
vt 0.000277 0.066245
vt 0.966852 0.211175
vt 0.999428 0.218161
vt 0.075287 0.748012
vt 0.075287 0.673555
vt 0.120158 0.673555
vt 0.120158 0.748012
vt 0.101089 0.254175
vt 0.096333 0.288155
vt 0.901476 0.038460
vt 0.906359 0.003847
vt 0.166135 0.748011
vt 0.166135 0.673555
vt 0.211006 0.673555
vt 0.211006 0.748011
vt 0.511047 0.673511
vt 0.511047 0.747968
vt 0.466176 0.747968
vt 0.466176 0.673511
vt 0.165582 0.673555
vt 0.165582 0.748012
vt 0.120711 0.748011
vt 0.120711 0.673555
vt 0.924150 0.333590
vt 0.924150 0.469050
vt 0.849694 0.469050
vt 0.849694 0.333590
vt 0.074733 0.333590
vt 0.074733 0.469050
vt 0.000277 0.469050
vt 0.000277 0.333590
vt 0.599804 0.514482
vt 0.599804 0.672204
vt 0.525348 0.672204
vt 0.525348 0.514482
vt 0.224754 0.514482
vt 0.224754 0.673001
vt 0.150297 0.673001
vt 0.150297 0.514482
vt 0.736077 0.514482
vt 0.736077 0.673001
vt 0.691206 0.672204
vt 0.691206 0.514482
vt 0.645228 0.514482
vt 0.645229 0.673907
vt 0.600358 0.673001
vt 0.600358 0.514482
vt 0.074733 0.514482
vt 0.074733 0.673906
vt 0.000277 0.673906
vt 0.000277 0.514482
vt 0.420198 0.673511
vt 0.420198 0.831987
vt 0.375328 0.832030
vt 0.375328 0.673511
vt 0.299764 0.514482
vt 0.299764 0.673001
vt 0.225307 0.673001
vt 0.225307 0.514482
vt 0.449784 0.514482
vt 0.449784 0.672957
vt 0.375328 0.672957
vt 0.375328 0.514482
vt 0.465622 0.673511
vt 0.465622 0.832031
vt 0.420752 0.831987
vt 0.420752 0.673511
vt 0.826925 0.514482
vt 0.826925 0.672957
vt 0.782055 0.673001
vt 0.782055 0.514482
vt 0.849694 0.513928
vt 0.074733 0.513920
vt 0.074733 0.288719
vt 0.849694 0.288709
vt 0.570218 0.672758
vt 0.570218 0.831277
vt 0.525348 0.831234
vt 0.525348 0.672758
vt 0.524794 0.514482
vt 0.524794 0.672957
vt 0.450338 0.672957
vt 0.450338 0.514482
vn 0.0000 0.0000 1.0000
vn 0.0000 0.0000 -1.0000
vn -1.0000 0.0000 -0.0000
vn 1.0000 0.0000 0.0000
vn 0.0000 -1.0000 0.0000
vn 0.0000 1.0000 0.0000
vn -0.0000 -1.0000 0.0038
usemtl None
s off
f 36/1/1 26/2/1 18/3/1 29/4/1
f 44/5/2 16/6/2 3/7/2 43/8/2
f 32/9/3 24/10/3 6/11/3 37/12/3
f 40/13/1 12/14/1 8/15/1 39/16/1
f 30/17/4 20/18/4 1/19/4 41/20/4
f 33/21/2 27/22/2 22/23/2 31/24/2
f 33/25/4 40/26/4 9/27/4 27/28/4
f 34/29/4 28/30/4 14/31/4 38/32/4
f 43/8/4 3/7/4 19/33/4 29/34/4
f 39/16/3 8/15/3 23/35/3 31/36/3
f 9/37/5 7/38/5 22/39/5 27/40/5
f 41/20/1 1/19/1 11/41/1 42/42/1
f 37/12/2 6/11/2 15/43/2 38/44/2
f 18/45/5 26/46/5 13/47/5 4/48/5
f 28/49/5 21/50/5 5/51/5 14/52/5
f 2/53/5 10/54/5 25/55/5 17/56/5
f 31/57/5 32/58/5 34/59/5 33/60/5
f 35/61/5 36/62/5 29/63/5 30/64/5
f 24/10/3 32/9/3 31/36/3 23/35/3
f 20/18/4 30/17/4 29/34/4 19/33/4
f 20/18/6 19/33/6 3/7/6 16/6/6 15/43/6 6/11/6 24/10/6 23/35/6 8/15/6 12/14/6 11/41/6 1/19/6
f 5/65/2 37/66/2 38/67/2 14/68/2
f 28/69/1 34/70/1 32/71/1 21/72/1
f 21/73/3 32/74/3 37/75/3 5/76/3
f 7/77/3 39/78/3 31/79/3 22/80/3
f 9/81/1 40/82/1 39/83/1 7/84/1
f 10/85/3 42/86/3 35/87/3 25/88/3
f 25/89/2 35/90/2 30/91/2 17/92/2
f 2/93/1 41/94/1 42/95/1 10/96/1
f 17/97/4 30/98/4 41/99/4 2/100/4
f 4/101/4 43/102/4 29/103/4 18/104/4
f 33/60/7 34/59/7 38/105/7 44/106/7 36/62/7 35/61/7 42/107/7 40/108/7
f 26/109/3 36/110/3 44/111/3 13/112/3
f 13/113/2 44/114/2 43/115/2 4/116/2
f 16/6/2 44/5/2 38/44/2 15/43/2
f 12/14/1 40/13/1 42/42/1 11/41/1
